<svg aria-hidden="true" style="position: absolute; width: 0; height: 0; overflow: hidden;" version="1.1" xmlns="http://www.w3.org/2000/svg" xmlns:xlink="http://www.w3.org/1999/xlink">
<defs>
<symbol id="icon-play" viewBox="0 0 30 32">
<path d="M21.828 17.394l-11.977 7.384c-1.016 0.626-2.321-0.132-2.321-1.394v-14.768c0-1.26 1.303-2.020 2.321-1.392l11.977 7.384c0.231 0.14 0.423 0.343 0.557 0.588s0.204 0.523 0.204 0.805c0 0.283-0.070 0.561-0.204 0.805s-0.326 0.447-0.557 0.588z"></path>
</symbol>
<symbol id="icon-circle" viewBox="0 0 33 32">
<path d="M27.535 15.256c0 7.193-5.997 13.023-13.395 13.023s-13.395-5.831-13.395-13.023c0-7.193 5.997-13.023 13.395-13.023s13.395 5.831 13.395 13.023z"></path>
</symbol>
<symbol id="icon-arrow-right-on-btn" viewBox="0 0 32 32">
<path d="M8.51 3.254c-0.326 0.376-0.51 0.886-0.51 1.417s0.183 1.041 0.51 1.417l8.62 9.924-8.62 9.924c-0.317 0.378-0.493 0.884-0.489 1.41s0.187 1.029 0.51 1.4 0.76 0.583 1.216 0.587c0.457 0.005 0.896-0.198 1.225-0.563l9.851-11.341c0.326-0.376 0.51-0.886 0.51-1.417s-0.183-1.041-0.51-1.417l-9.851-11.341c-0.327-0.376-0.769-0.587-1.231-0.587s-0.905 0.211-1.231 0.587z"></path>
</symbol>
</defs>
</svg>
